<svg width="41" height="41" viewBox="0 0 41 41" fill="none" xmlns="http://www.w3.org/2000/svg"><path fill-rule="evenodd" clip-rule="evenodd" d="M19.164.078c-.937.133-2.114.478-2.917.856-.535.252-1.012.414-1.402.476-1.102.176-2.14.762-2.769 1.564-.422.539-.841 1.447-1.014 2.196-.207.903-.249 2.762-.093 4.133.157 1.37.137 1.493-.247 1.564-.436.08-.959.64-1.132 1.212-.501 1.651.301 4.134 1.614 4.994.376.246.444.337.614.806.23.636.81 1.825 1.204 2.463.157.255.254.493.216.528-.04.035-2.177 1.053-4.751 2.262-2.575 1.21-4.909 2.35-5.187 2.534-1.124.743-2.195 2.046-2.752 3.35C.052 30.176 0 30.683 0 34.225c0 2.915.013 3.215.148 3.507.226.487.57.84 1.021 1.047l.409.187h7.384l7.384.002.04.55c.048.648.25 1.026.695 1.299.3.183.306.183 3.42.183 3.116 0 3.121 0 3.42-.183.446-.273.649-.65.696-1.3l.04-.55h14.778l.418-.205c.475-.233.784-.555 1.01-1.054.145-.323.152-.532.124-3.746-.029-3.183-.042-3.444-.204-4.018a7.558 7.558 0 00-2-3.377c-.825-.811-1.336-1.119-3.716-2.237-5.988-2.813-7.237-3.405-7.301-3.462-.04-.034.058-.27.216-.526.393-.638.974-1.827 1.204-2.463.167-.464.24-.562.595-.795 1.023-.67 1.744-2.231 1.766-3.823.012-.938-.175-1.538-.627-2-.22-.225-.426-.355-.623-.391-.284-.052-.298-.071-.387-.517-.051-.254-.197-.79-.324-1.188-.164-.515-.202-.726-.13-.726.056 0 .326.07.6.156.543.17.75.141 1.013-.146.206-.225.145-.705-.225-1.795-1.233-3.621-4.08-5.997-7.84-6.54-.93-.134-3.01-.154-3.84-.036zm3.733 1.384c3.021.482 5.15 2.131 6.402 4.959l.276.623-.426.047c-.511.057-.7.149-.98.475-.3.35-.282.841.067 1.902.152.465.32 1.168.372 1.562.121.922.2 1.119.5 1.24.194.08.301.08.519.003.151-.054.31-.077.35-.052.043.026.119.244.17.485.241 1.146-.483 3.042-1.257 3.289-.47.15-.634.364-.927 1.212-.598 1.73-1.804 3.678-3.017 4.87-2.535 2.493-5.423 2.773-8.023.776-1.565-1.202-3.137-3.488-3.883-5.646-.296-.859-.417-1.017-.904-1.194-.573-.207-1.093-1.133-1.28-2.276-.091-.567-.037-1.231.12-1.441.084-.114.133-.118.386-.028.233.083.337.083.535.002.308-.125.338-.195.466-1.121.09-.646.087-.921-.02-1.873-.151-1.336-.104-3.25.098-3.982.42-1.518 1.465-2.449 2.902-2.584.445-.041.68-.112.987-.298.718-.434 2.061-.876 3.078-1.011.636-.085 2.811-.047 3.49.061zm-6.57 4.021c-.133.032-.33.11-.435.172-.216.126-1.63 2.17-1.63 2.355 0 .245.246.574.493.658.41.141.62-.02 1.29-.992l.607-.882.973.458c1.106.521 2.4.957 3.525 1.186.906.185 3.086.347 4.137.308.694-.027.752-.042.935-.252.256-.292.255-.643-.003-.896-.19-.186-.247-.196-1.196-.197-2.922-.006-4.562-.344-6.953-1.435-1.09-.498-1.364-.574-1.742-.483zm-1.48 17.26c1.757 1.843 3.628 2.754 5.655 2.754 1.078 0 1.877-.187 2.877-.671.98-.475 1.906-1.169 2.777-2.081l.722-.757.823.373c.453.206.824.4.824.431 0 .032-1.098 1.47-2.44 3.194a6483.21 6483.21 0 00-3.136 4.034l-.696.897h-3.5l-3.097-3.98c-1.704-2.19-3.118-4.031-3.141-4.093-.03-.078.193-.22.75-.477.436-.201.809-.369.827-.372.02-.003.358.334.755.749zm-.748 4.4a378.144 378.144 0 012.938 3.814c.038.065-.042.204-.215.374a1.6 1.6 0 00-.364.586c-.056.2-.089 1.298-.09 3.005v2.69H1.773l-.2-.195-.198-.196.001-3.052c.002-3.274.036-3.644.43-4.604a6.219 6.219 0 012.123-2.678c.502-.352 6.934-3.448 7.171-3.452.067-.001 1.417 1.667 2.999 3.708zm19.165-2.166c1.815.854 3.53 1.714 3.81 1.91a6.22 6.22 0 012.122 2.677c.395.961.43 1.33.43 4.605l.002 3.052-.199.196-.199.195H24.635v-2.69c0-1.707-.034-2.805-.09-3.005a1.603 1.603 0 00-.364-.586c-.172-.17-.252-.309-.214-.373.209-.357 5.832-7.525 5.906-7.529.05-.003 1.576.694 3.391 1.548zm-14.606 8.02c.546.716.547.72.5 1.132a1.259 1.259 0 00.692 1.307c.448.233.855.233 1.303 0a1.296 1.296 0 00.435-1.946c-.232-.3-.754-.576-1.091-.579-.189-.001-.363-.16-.593-.54-.047-.078.303-.1 1.647-.1h1.708l-.021 3.688-.021 3.686-2.736.021-2.735.021v-7.415l.182.004c.133.003.332.2.73.722zm-15.692.795c-.21.163-.213.182-.213 1.142 0 .918.011.987.187 1.15.242.223.692.23.927.016.214-.196.297-.699.245-1.486-.031-.478-.075-.63-.227-.79-.235-.246-.624-.26-.919-.032zm3.39.03c-.188.185-.2.246-.2 1.106 0 .8.02.935.169 1.12.327.409 1.04.225 1.175-.303.027-.11.038-.538.022-.953-.025-.667-.05-.778-.225-.96a.647.647 0 00-.941-.01zm3.403 0c-.187.185-.199.248-.199 1.082 0 .487.04.958.088 1.046.215.396.9.421 1.17.042.167-.234.168-1.723.002-2.04-.204-.388-.733-.452-1.06-.13zm3.522-.093c-.248.188-.317.45-.317 1.203 0 .9.077 1.138.412 1.277.328.136.608.076.806-.171.138-.173.16-.325.16-1.11 0-.86-.01-.92-.199-1.105-.218-.215-.64-.261-.862-.094zm13.579.094c-.188.184-.199.245-.199 1.105 0 .785.022.937.16 1.11.088.11.25.217.358.237.289.055.687-.139.78-.378.111-.289.1-1.684-.014-1.897-.229-.42-.75-.506-1.085-.177zm3.548-.143c-.238.094-.343.495-.343 1.303 0 .444.04.879.087.967.131.241.54.386.82.29.404-.139.47-.325.47-1.32 0-.851-.01-.913-.198-1.097-.191-.188-.562-.251-.836-.143zm3.27.192c-.194.228-.21.301-.21 1.04 0 1.102.14 1.345.771 1.345a.498.498 0 00.44-.21c.147-.184.168-.32.168-1.12 0-.859-.011-.92-.2-1.104-.292-.288-.697-.268-.968.05zm3.457-.065c-.152.158-.175.29-.195 1.111-.022.89-.014.94.172 1.136.259.27.713.28.962.019.161-.169.177-.269.177-1.15 0-.948-.004-.969-.214-1.13-.285-.222-.684-.215-.902.014z" fill="#393587"/></svg>