<svg width="54" height="44" viewBox="0 0 54 44" fill="none" xmlns="http://www.w3.org/2000/svg"><path fill-rule="evenodd" clip-rule="evenodd" d="M10.232.087a.802.802 0 00-.275.256c-.085.136-.483 2.817-.49 3.302-.003.132-.715.445-.841.368a44.74 44.74 0 01-1.202-.93c-1.296-1.022-1.344-1.05-1.738-1.05-.282 0-.4.098-1.881 1.568-.87.863-1.628 1.679-1.685 1.813a.947.947 0 00-.064.462c.032.168.993 1.488 1.988 2.732.051.064.024.22-.082.46-.182.414-.063.376-1.88.588-1.371.16-1.625.227-1.872.49l-.197.212L0 12.53c-.007 1.44.02 2.267.081 2.45.137.412.404.56 1.188.657.901.111 1.92.245 2.258.298.227.035.297.1.43.404l.16.362-.984 1.265c-1.03 1.323-1.181 1.612-1.043 1.979.09.24 2.599 2.825 3.106 3.202.363.27.726.303 1.025.095.11-.077.703-.535 1.317-1.019.614-.483 1.154-.878 1.2-.878.164 0 .726.331.728.43.001.054.09.796.197 1.648.192 1.522.2 1.551.446 1.772l.25.224 2.331-.002c2.087-.001 2.35-.016 2.505-.142.289-.235.343-.434.518-1.904.092-.778.188-1.496.213-1.595.03-.119.165-.226.402-.317l.358-.137.466.366c2.165 1.702 2.153 1.694 2.49 1.694.314 0 .378-.054 1.965-1.65 1.639-1.65 1.809-1.877 1.699-2.282-.027-.1-.491-.75-1.031-1.441l-.982-1.259.09-.29a2.2 2.2 0 01.152-.388c.061-.094.97-.25 2.52-.43.843-.098 1.096-.22 1.224-.59.054-.154.087-1.07.087-2.378 0-1.862-.018-2.162-.142-2.412-.184-.37-.414-.438-2.204-.646-.898-.105-1.439-.203-1.481-.269a2.248 2.248 0 01-.159-.4l-.09-.298.841-1.082c.463-.595.924-1.213 1.024-1.373.366-.585.353-.605-1.503-2.47-2.143-2.152-1.845-2.098-3.667-.668L16.681 4.08l-.364-.14c-.238-.09-.377-.198-.403-.31a40.806 40.806 0 01-.204-1.586C15.544.618 15.434.232 15.15.079c-.206-.11-4.69-.103-4.917.008zm3.81 1.762c.026.123.116.797.2 1.497.086.7.197 1.351.247 1.446.1.187.503.417 1.02.581.179.057.361.13.406.161.237.17.817.331 1.024.286.127-.028.767-.472 1.423-.987l1.192-.936.919.92c.505.506.919.952.919.99 0 .037-.379.554-.842 1.148-.463.594-.883 1.157-.933 1.252-.146.274-.108.58.145 1.153.13.295.303.715.385.933.082.217.238.456.347.53.127.085.732.205 1.704.336l1.506.204.023 1.326c.017 1.018-.002 1.334-.082 1.361-.057.02-.74.109-1.518.198-1.078.124-1.464.2-1.62.316-.126.095-.326.448-.52.921-.413 1.01-.497 1.307-.435 1.547.029.109.453.712.943 1.34.49.627.892 1.177.894 1.223.001.046-.408.494-.91.997l-.913.914-1.054-.825c-1.615-1.262-1.622-1.265-2.297-.951-.21.097-.633.271-.94.387-.8.3-.841.38-1.03 1.928a39.526 39.526 0 01-.203 1.521l-.046.225h-2.644l-.046-.306c-.026-.168-.11-.85-.186-1.517-.165-1.433-.233-1.556-1.024-1.843-.28-.102-.682-.273-.892-.379-.612-.309-.765-.27-1.662.416a81.75 81.75 0 00-1.247.973l-.453.364-.952-.959-.952-.959.928-1.193c.51-.656.952-1.284.98-1.396.053-.213-.003-.394-.46-1.49-.296-.714-.403-.88-.644-1.01-.083-.045-.743-.153-1.467-.24a35.074 35.074 0 01-1.498-.201c-.18-.042-.182-.061-.182-1.34 0-.714.027-1.314.06-1.334.034-.02.719-.116 1.522-.214 1.048-.128 1.517-.22 1.662-.323.12-.086.329-.44.514-.87.467-1.087.545-1.335.492-1.55-.027-.107-.462-.733-.967-1.392-.676-.882-.9-1.231-.851-1.324.037-.07.455-.505.928-.968l.86-.842.71.553c.39.304.927.728 1.194.943.66.532.851.555 1.637.204.35-.156.777-.334.95-.394.568-.2.658-.393.814-1.753a75.4 75.4 0 01.186-1.516l.046-.306h2.644l.046.224zM11.25 7.773c-.876.27-1.502.65-2.152 1.305-1.039 1.045-1.5 2.16-1.5 3.63 0 1.458.465 2.582 1.495 3.617.598.6 1.298 1.03 2.157 1.323.694.237 2.209.216 2.961-.042 1.664-.569 2.805-1.722 3.377-3.411.268-.79.267-2.187-.001-2.98-.6-1.77-1.804-2.948-3.547-3.469-.808-.241-1.958-.23-2.79.027zm2.899 1.75c2.137.995 2.7 3.774 1.12 5.53-1.854 2.06-5.236 1.228-5.964-1.467-.063-.235-.09-.665-.07-1.102.044-.92.348-1.617.983-2.255.755-.758 1.449-1.027 2.573-.998.68.018.84.052 1.358.293zm20.265 1.122c-.262.067-.524.36-.6.672-.04.16-.176 1.186-.303 2.28l-.233 1.991-.487.22a8.795 8.795 0 01-.654.272c-.131.04-.51-.217-1.744-1.183-.868-.679-1.687-1.302-1.82-1.386a.862.862 0 00-.965.007c-.27.168-3.817 3.74-4.05 4.077-.307.447-.23.606 1.165 2.41a90.177 90.177 0 011.39 1.823c.12.193-.313 1.306-.542 1.395-.09.035-1.112.176-2.273.313l-2.11.249-.222.248-.223.249v3.044c0 2.926.006 3.051.163 3.252.204.26.25.27 2.717.578l2.028.254.176.366c.097.202.22.5.274.664l.098.296-1.297 1.664c-.714.916-1.339 1.742-1.39 1.838-.05.095-.092.294-.092.443 0 .244.204.474 2.175 2.45 2.02 2.025 2.195 2.18 2.46 2.18.33 0 .397-.046 2.455-1.661l1.44-1.132.3.094c.164.053.462.177.663.277l.365.18.217 1.794.271 2.234c.041.332.112.5.284.672l.23.231h3.03c3.236 0 3.257-.002 3.472-.406.045-.084.153-.733.24-1.442.089-.709.2-1.62.25-2.023.138-1.123.11-1.065.627-1.303.814-.376.728-.405 2.17.738 2.15 1.703 2.214 1.747 2.542 1.747.277 0 .422-.128 2.467-2.182 1.963-1.971 2.172-2.207 2.172-2.45 0-.147-.04-.344-.09-.436-.05-.093-.674-.921-1.388-1.84l-1.299-1.672.099-.294c.054-.162.177-.459.273-.66l.175-.367 2.19-.27c1.65-.204 2.24-.306 2.393-.416.387-.277.417-.548.39-3.611l-.025-2.83-.247-.248c-.245-.246-.255-.248-2.462-.523-1.218-.151-2.244-.306-2.278-.345-.034-.038-.164-.334-.288-.658-.158-.413-.201-.619-.144-.692a468.83 468.83 0 002.28-2.941c.459-.605.529-.916.288-1.281-.218-.33-3.865-3.992-4.103-4.118a.886.886 0 00-.82-.023c-.098.052-.89.65-1.76 1.33s-1.624 1.26-1.675 1.29c-.05.03-.233-.002-.405-.073-.889-.363-.92-.384-.961-.64a99.126 99.126 0 01-.368-2.938c-.118-1.074-.198-1.357-.45-1.595l-.21-.198-2.895-.013c-1.591-.007-2.967.006-3.056.028zm5.084 2.715l.263 2.116c.087.714.17 1.076.276 1.22.097.13.426.31.915.5.42.163.981.396 1.247.518.338.155.556.207.73.174.15-.029.898-.557 1.91-1.35l1.663-1.304 1.4 1.405c.77.773 1.4 1.442 1.398 1.487 0 .045-.517.742-1.148 1.55-.63.806-1.213 1.576-1.295 1.71-.209.34-.189.622.082 1.164.129.256.33.735.447 1.063.271.759.34.884.56 1.028.11.071.979.217 2.208.37 1.116.138 2.074.268 2.13.287.078.027.102.5.102 1.99 0 1.473-.025 1.969-.102 2.018-.056.036-1.032.182-2.169.324-2.053.257-2.07.26-2.282.5-.118.133-.28.439-.36.68-.08.24-.284.739-.456 1.107-.17.37-.31.776-.31.905 0 .265.059.353 1.527 2.248.588.758 1.068 1.418 1.068 1.468 0 .16-2.736 2.843-2.852 2.797-.06-.025-.835-.617-1.723-1.316-1.384-1.09-1.655-1.271-1.898-1.271-.163 0-.616.152-1.064.358-.428.196-.936.404-1.129.462-.192.058-.436.208-.542.335-.215.256-.208.22-.513 2.675l-.218 1.752h-4.057l-.092-.734a259.59 259.59 0 01-.23-1.915c-.212-1.826-.236-1.879-.976-2.117a14.719 14.719 0 01-1.104-.46c-.428-.196-.885-.356-1.014-.356-.31 0-.468.105-2.182 1.456-.803.633-1.497 1.15-1.542 1.15-.045.001-.71-.631-1.479-1.404l-1.396-1.406 1.182-1.508c1.377-1.756 1.49-1.925 1.49-2.21 0-.118-.14-.54-.31-.937-.172-.398-.41-.963-.53-1.255-.119-.292-.296-.58-.392-.641-.163-.102-1.381-.286-3.473-.524l-.852-.097-.022-2.058c-.018-1.688-.002-2.057.089-2.057.06 0 1.001-.112 2.09-.25 1.26-.158 2.05-.294 2.17-.373.172-.111.582-.884.582-1.095 0-.047.146-.396.324-.777.179-.38.325-.804.325-.94 0-.29-.026-.329-1.48-2.2-.614-.792-1.117-1.471-1.117-1.51 0-.037.631-.701 1.402-1.475l1.402-1.406 1.661 1.304c1.069.84 1.755 1.323 1.923 1.355.2.039.41-.018.893-.242.346-.161.9-.395 1.23-.52.368-.138.66-.305.755-.432.12-.16.206-.635.394-2.158.133-1.074.26-2.036.282-2.137l.042-.185 2.004.022 2.004.022.139 1.1zm-3.472 7.502c-2.344.494-4.109 2.078-4.946 4.436-.217.612-.232.732-.234 1.956-.002 1.143.021 1.38.188 1.915.695 2.234 2.407 3.916 4.61 4.53.718.2 2.213.243 2.976.084 2.85-.592 4.952-2.909 5.245-5.784a6.573 6.573 0 00-5.25-7.137c-.998-.205-1.62-.205-2.59 0zm2.718 1.715c1.655.496 2.962 1.875 3.386 3.571.271 1.088.063 2.62-.489 3.596-1.945 3.441-6.95 3.32-8.707-.208-1.916-3.851 1.706-8.19 5.81-6.96z" fill="#393587"/></svg>