<svg width="38" height="46" viewBox="0 0 38 46" fill="none" xmlns="http://www.w3.org/2000/svg"><path fill-rule="evenodd" clip-rule="evenodd" d="M3.698.606C2.586 1.802 1.306 3.974.715 5.666.166 7.239.002 8.226 0 9.972c-.002 1.707.162 2.732.668 4.166.4 1.133 1.412 3.016 2.191 4.074 1.027 1.396 1.35 1.725 1.693 1.725.323 0 .666-.285.75-.623.068-.275-.013-.416-1.005-1.735C1.67 14.083.857 10.459 1.889 6.83c.478-1.68 1.595-3.693 2.815-5.07.29-.326.555-.685.59-.797.09-.285-.11-.72-.39-.849-.445-.204-.63-.129-1.206.49zm10.65-.474c-.466.149-1.26.98-1.402 1.467-.086.295-.115 2.291-.115 7.918v7.522l-.288.12c-.39.164-.982.863-1.118 1.323a3.947 3.947 0 00-.111.915v.54h-.534c-.294 0-.71.053-.925.117-.52.155-1.306.95-1.46 1.475-.08.277-.115 1.401-.115 3.774s.034 3.497.115 3.774c.154.526.94 1.32 1.46 1.475.215.064.63.117.925.117h.534v2.3H10.03c-1.238 0-1.293.008-1.517.235l-.233.235v5.192l.233.235c.224.226.28.235 1.517.235h1.284v2.456c0 1.648.038 2.586.115 2.85.154.527.94 1.32 1.46 1.476.291.087 2.205.117 7.544.117 8.144 0 7.735.037 8.449-.766.225-.253.46-.631.522-.84.163-.548.163-25.369 0-25.917-.165-.557-.838-1.269-1.375-1.454-.243-.083-.52-.152-.615-.152-.146 0-.173-.081-.173-.54 0-.771-.166-1.234-.635-1.76-.767-.863-1.97-1.013-2.896-.362-.257.181-.265.181-.521 0-.89-.626-2.074-.504-2.848.294-.471.485-.684 1.048-.684 1.805v.563h-2.275V9.432c0-5.47-.03-7.54-.113-7.819-.165-.557-.839-1.269-1.375-1.454a2.496 2.496 0 00-1.546-.027zm18.53.11c-.37.374-.31.73.218 1.321 1.657 1.852 2.698 3.835 3.216 6.125.254 1.123.224 3.422-.058 4.584-.509 2.09-1.447 3.924-2.997 5.865-.35.437-.611.858-.611.982 0 .291.32.687.616.762.347.088.636-.105 1.176-.785 3.601-4.539 4.47-9.175 2.614-13.934-.637-1.631-1.862-3.601-2.933-4.715-.502-.522-.867-.582-1.24-.205zM15.632 1.775c.215.217.233.307.233 1.15v.915h-1.517v-.915c0-.843.018-.933.232-1.15a.76.76 0 01.526-.235.76.76 0 01.526.235zm-8.3 2.132c-.478.175-1.557 1.591-2.076 2.725-1.317 2.873-.896 5.709 1.274 8.572.6.79.931.986 1.339.788.351-.17.537-.559.418-.876-.05-.132-.329-.55-.62-.932-1.019-1.333-1.66-2.995-1.66-4.308 0-1.358.693-3.116 1.648-4.18.29-.324.57-.702.62-.84.217-.574-.366-1.16-.943-.949zm22.546.224c-.39.394-.317.714.326 1.432a7.123 7.123 0 011.465 2.54c.36 1.104.357 2.46-.01 3.546-.324.962-.737 1.713-1.472 2.682-.65.856-.717 1.16-.343 1.538a.772.772 0 00.845.18c.182-.071 1.149-1.34 1.603-2.105.698-1.175 1.207-2.911 1.207-4.118 0-.6-.264-1.902-.532-2.624-.597-1.607-1.979-3.362-2.647-3.362-.085 0-.284.13-.442.291zM15.865 8.056v2.683h-1.517V5.373h1.517v2.683zm0 4.982v.767h-1.517v-1.533h1.517v.766zm0 3.067v.766h-1.517v-1.533h1.517v.767zm6.593-.532c.191.193.233.33.233.767v.531h-1.517v-.531c0-.64.274-1.002.758-1.002a.76.76 0 01.526.235zm3.034 0c.191.193.233.33.233.767v.531h-1.517v-.531c0-.64.274-1.002.758-1.002a.76.76 0 01.526.235zm2.275 3.066l.233.236V41.4H12.831V18.874l.232-.235.233-.235h14.239l.232.235zm-13.187 2.3a.776.776 0 00-.232.531.78.78 0 00.232.532l.233.235h11.205l.232-.235a.776.776 0 00.233-.532.776.776 0 00-.233-.531l-.232-.235H14.813l-.233.235zm-3.266 4.364v3.833h-.526c-.432 0-.567-.042-.758-.235l-.233-.235V21.94l.233-.235c.19-.194.326-.236.758-.236h.526v3.833zm3.266-1.298a.776.776 0 00-.232.532c0 .186.086.383.232.53l.233.236h11.205l.232-.235a.776.776 0 00.233-.531.776.776 0 00-.233-.532l-.232-.235H14.813l-.233.235zm0 3.066l-.232.236v5.958l.232.235.233.235h11.205l.232-.235.233-.235v-5.958l-.233-.236-.232-.235H14.813l-.233.235zm10.386 3.215v1.916h-9.101v-3.833h9.101v1.917zm-13.652 5.749v1.533H9.797v-3.066h1.517v1.533zm5.309-.642c-.465.149-1.259.98-1.402 1.467-.262.899-.077 1.615.593 2.292.97.98 2.31.96 3.208-.05.85-.955.85-2.113 0-3.068-.614-.69-1.5-.927-2.399-.64zm6.068 0c-.466.149-1.26.98-1.402 1.467-.263.899-.077 1.615.593 2.292.97.98 2.309.96 3.207-.05.85-.955.85-2.113 0-3.068-.613-.69-1.5-.927-2.398-.64zm-4.784 1.643a.776.776 0 01.233.532.776.776 0 01-.233.531.76.76 0 01-.526.235.76.76 0 01-.525-.235.776.776 0 01-.233-.531c0-.187.086-.383.233-.532a.76.76 0 01.525-.235.76.76 0 01.526.235zm6.068 0a.776.776 0 01.233.532.776.776 0 01-.233.531.76.76 0 01-.526.235.76.76 0 01-.526-.235.776.776 0 01-.232-.531c0-.187.086-.383.233-.532a.76.76 0 01.525-.235.76.76 0 01.526.235zM28 43.465c0 .436-.042.573-.233.766l-.232.236H13.296l-.232-.236c-.192-.193-.233-.33-.233-.766v-.531H28v.531z" fill="#393587"/></svg>