<svg width="13" height="16" viewBox="0 0 13 16" fill="none" xmlns="http://www.w3.org/2000/svg"><path fill-rule="evenodd" clip-rule="evenodd" d="M6.03.005c-1.458.108-2.712.6-3.728 1.463C1.018 2.558.208 4.193.035 6.038c-.074.798-.033 1.372.146 2.038.399 1.488 1.41 3.217 2.926 5.004 1.122 1.323 2.401 2.489 3.105 2.83.236.114.322.118.537.02.686-.309 1.999-1.5 3.145-2.85 1.515-1.787 2.525-3.515 2.926-5.004.178-.66.219-1.243.145-2.037-.177-1.91-1.045-3.6-2.405-4.686C9.642.62 8.58.19 7.312.038A13.48 13.48 0 006.031.005zm.95 3.516c.364.055.781.214 1.112.424A2.726 2.726 0 019.31 5.813c.033.218.013.709-.037.923-.247 1.055-1.077 1.84-2.197 2.078-.173.037-.257.043-.575.043-.411 0-.61-.03-.946-.143A2.9 2.9 0 014.1 7.609a2.87 2.87 0 01-.37-.86 3.363 3.363 0 01-.03-.99 2.74 2.74 0 011.863-2.125A2.95 2.95 0 016.98 3.52z" fill="#B8B8B8"/></svg>