<svg width="13" height="14" viewBox="0 0 13 14" fill="none" xmlns="http://www.w3.org/2000/svg"><path fill-rule="evenodd" clip-rule="evenodd" d="M2.481.01c-.09.021-1.194.659-1.187.685.005.018 2.25 3.7 2.265 3.714.002.003.125-.065.272-.151.147-.086.394-.229.55-.317.154-.09.304-.18.332-.204a.54.54 0 00.1-.138.34.34 0 00.048-.21.387.387 0 00-.034-.185A152.408 152.408 0 002.955.152.548.548 0 002.481.01zM8.98.879l-.15.458a6.01 6.01 0 00-.092.294l.123.028a4.07 4.07 0 011.941 1.062 3.69 3.69 0 011.063 2.034c.04.23.056.708.03.95-.037.354-.141.76-.276 1.07-.044.1-.06.156-.05.16.108.034 1.058.307 1.07.307.038 0 .202-.517.272-.862.074-.36.097-.634.087-1.047a4.316 4.316 0 00-.362-1.695c-.618-1.443-1.868-2.486-3.464-2.891L9.034.712 8.98.879zM.84.964c-.357.352-.635.922-.757 1.555-.107.55-.112 1.234-.014 1.885.246 1.645 1.193 3.742 2.59 5.732.568.81 1.09 1.428 1.691 2.002.66.63 1.26 1.064 1.919 1.387.844.414 1.703.568 2.343.42.114-.026.3-.095.3-.11 0-.005-2.2-3.636-2.208-3.646a.52.52 0 00-.092.036.613.613 0 01-.423.006c-.264-.104-.574-.403-1.069-1.031-.232-.295-.29-.386-1.12-1.744-.717-1.172-.703-1.148-.845-1.49-.157-.38-.212-.617-.201-.865.006-.136.012-.167.052-.249a.694.694 0 01.213-.244l.036-.024-.103-.17A295.366 295.366 0 00.969.854a.79.79 0 00-.128.11zm7.495 1.864l-.159.48c-.082.247-.147.45-.145.451.003.002.083.018.177.036.392.074.702.238.983.521.214.215.355.458.436.748.052.19.065.534.028.727-.03.154-.096.346-.158.464-.033.063-.04.088-.027.093l.439.129c.23.067.448.132.483.143l.064.02.037-.079c.097-.21.184-.538.217-.813.084-.722-.187-1.518-.707-2.08a2.926 2.926 0 00-1.472-.837c-.183-.042-.183-.042-.196-.003zm-.164 6.534c-.033.01-.31.162-.618.336-.473.27-.556.322-.544.342a913.44 913.44 0 002.217 3.624c.01.01.938-.51 1.1-.616a.496.496 0 00.168-.221.553.553 0 00-.005-.333 127.67 127.67 0 00-1.826-2.99.528.528 0 00-.492-.142z" fill="#B8B8B8"/></svg>