<svg width="13" height="9" viewBox="0 0 13 9" fill="none" xmlns="http://www.w3.org/2000/svg"><path fill-rule="evenodd" clip-rule="evenodd" d="M.475.017c0 .013 5.004 4.894 5.3 5.17.137.128.3.241.424.295a.6.6 0 00.303.06c.174-.002.308-.05.517-.186.117-.076 5.487-5.292 5.487-5.33 0-.02-1.217-.026-6.015-.026C3.182 0 .475.008.475.017zm10.49 2.484c-1.324 1.29-2.024 1.986-2.02 2.009.005.019.917.92 2.028 2.001l2.02 1.968.005-1.989c.003-1.094.003-2.883 0-3.976L12.992.527l-2.027 1.974zM0 4.512c0 2.353.008 3.944.02 3.944.01 0 .073-.054.139-.12.066-.067.97-.95 2.01-1.962C3.21 5.362 4.062 4.52 4.062 4.506 4.06 4.474.055.568.02.568.008.568 0 1.855 0 4.512zm2.533 2.462C1.116 8.357.523 8.948.532 8.971c.011.03.625.032 5.975.027 3.989-.003 5.966-.012 5.97-.026.009-.025-4.017-3.952-4.06-3.961-.015-.003-.067.035-.116.084a15.671 15.671 0 01-.916.844.373.373 0 01-.068.053c-.03.019-.11.07-.176.114a.847.847 0 01-.138.079.433.433 0 00-.091.039c-.158.082-.433.109-.652.063a1.112 1.112 0 01-.403-.185l-.169-.11c-.13-.083-.37-.294-.813-.717-.154-.148-.291-.268-.304-.267-.014.001-.93.886-2.038 1.966z" fill="#B8B8B8"/></svg>