<svg width="41" height="41" viewBox="0 0 41 41" fill="none" xmlns="http://www.w3.org/2000/svg">
<path fill-rule="evenodd" clip-rule="evenodd" d="M19.1643 0.0777385C18.2275 0.210535 17.05 0.556158 16.2467 0.934063C15.7119 1.18571 15.2352 1.3476 14.8451 1.40993C13.7427 1.58633 12.7052 2.17244 12.0765 2.97392C11.654 3.51252 11.2346 4.42098 11.0623 5.17049C10.8549 6.07328 10.8131 7.93228 10.9694 9.30281C11.1255 10.6721 11.1058 10.7962 10.7216 10.867C10.2863 10.9474 9.76327 11.5075 9.58975 12.0793C9.08865 13.7301 9.89116 16.2128 11.2038 17.0728C11.5796 17.319 11.6485 17.4096 11.8177 17.8786C12.0472 18.5153 12.6281 19.7039 13.0215 20.3416C13.1792 20.5972 13.2763 20.835 13.2376 20.87C13.1988 20.9051 11.0608 21.9232 8.48656 23.1325C5.91233 24.3418 3.57823 25.4819 3.29968 25.666C2.17583 26.409 1.10514 27.7125 0.548279 29.016C0.0524451 30.1767 -0.000801495 30.6825 8.95564e-06 34.2248C0.000657317 37.1396 0.0133815 37.4405 0.148484 37.732C0.374437 38.2194 0.718717 38.5726 1.169 38.7788L1.57755 38.9659L8.96206 38.9667L16.3465 38.9675L16.3865 39.5179C16.4337 40.1663 16.636 40.5443 17.0815 40.8168C17.3809 40.9998 17.3865 41.0001 20.5016 41.0001C23.6167 41.0001 23.6223 40.9998 23.9217 40.8168C24.3672 40.5443 24.5695 40.1663 24.6166 39.5179L24.6567 38.9675H32.0455H39.4343L39.8535 38.762C40.3285 38.5293 40.6368 38.2072 40.8621 37.7084C41.0082 37.3852 41.0152 37.1755 40.9867 33.9621C40.9585 30.7793 40.9453 30.5183 40.783 29.9445C40.4159 28.646 39.7449 27.5128 38.7831 26.5669C37.9584 25.7557 37.4475 25.4481 35.0674 24.33C29.0788 21.5165 27.8303 20.9246 27.7656 20.868C27.7268 20.8341 27.824 20.5972 27.9816 20.3416C28.375 19.7039 28.956 18.5153 29.1855 17.8786C29.3526 17.4151 29.4258 17.3175 29.7812 17.0843C30.8043 16.4133 31.5247 14.853 31.5466 13.261C31.5595 12.3232 31.3715 11.723 30.9203 11.2605C30.7009 11.0357 30.4937 10.9058 30.2969 10.8697C30.0126 10.8175 29.9988 10.7989 29.9095 10.3531C29.8586 10.0986 29.7129 9.56386 29.5856 9.1646C29.4217 8.65031 29.3839 8.4386 29.4559 8.4386C29.5118 8.4386 29.782 8.50914 30.0563 8.59531C30.5992 8.76589 30.8063 8.736 31.0691 8.44896C31.2747 8.22442 31.2144 7.7444 30.8436 6.65445C29.6115 3.03283 26.7635 0.656911 23.0036 0.113768C22.0743 -0.0204641 19.9946 -0.0399931 19.1643 0.0777385ZM22.8971 1.46214C25.9184 1.94415 28.0478 3.59335 29.2994 6.4209L29.5751 7.04367L29.1494 7.09102C28.638 7.14793 28.4481 7.24 28.1691 7.56609C27.8696 7.9161 27.8868 8.40695 28.2356 9.46829C28.3885 9.93332 28.5559 10.6362 28.6078 11.0302C28.729 11.9517 28.8084 12.149 29.1076 12.2709C29.3015 12.3499 29.409 12.3503 29.627 12.2727C29.7782 12.219 29.9361 12.1958 29.9779 12.2212C30.0198 12.2467 30.0956 12.4647 30.1465 12.7058C30.3884 13.8521 29.6641 15.7475 28.8898 15.9945C28.4194 16.1444 28.2557 16.3587 27.9628 17.2067C27.3654 18.9365 26.1586 20.8849 24.9463 22.0773C22.4113 24.5705 19.523 24.8497 16.923 22.8529C15.3581 21.6509 13.7862 19.3652 13.0402 17.2067C12.7436 16.3483 12.6234 16.1898 12.1355 16.0134C11.5628 15.8063 11.0425 14.8801 10.8569 13.7371C10.7647 13.1699 10.8193 12.5056 10.9752 12.2959C11.0602 12.1815 11.1094 12.1779 11.3619 12.2676C11.595 12.3506 11.6986 12.3511 11.8967 12.2704C12.2053 12.1447 12.2345 12.0746 12.3634 11.1487C12.4534 10.5026 12.4504 10.2278 12.3429 9.27555C12.1919 7.93953 12.2394 6.02562 12.4415 5.29436C12.8613 3.77564 13.9058 2.84535 15.3427 2.71032C15.7881 2.66855 16.0222 2.59769 16.3298 2.41173C17.0477 1.97771 18.3912 1.53643 19.4075 1.40076C20.0443 1.31571 22.2192 1.35397 22.8971 1.46214ZM16.3278 5.48303C16.194 5.51523 15.9977 5.59263 15.8916 5.65497C15.6763 5.78131 14.2611 7.82563 14.2611 8.01024C14.2611 8.25479 14.5081 8.58375 14.7553 8.66848C15.1651 8.80901 15.3743 8.64784 16.0441 7.67609L16.6519 6.7941L17.6245 7.25211C18.7311 7.77318 20.0259 8.20887 21.1499 8.43844C22.0561 8.62344 24.2359 8.78534 25.2867 8.74556C25.9807 8.71934 26.039 8.70363 26.2223 8.49392C26.4778 8.2017 26.4766 7.85137 26.2189 7.59806C26.0296 7.41177 25.9723 7.40229 25.0235 7.40053C22.1012 7.39527 20.4607 7.05667 18.0702 5.9656C16.9799 5.46797 16.7055 5.39192 16.3278 5.48303ZM14.8465 22.7438C16.6044 24.586 18.475 25.4965 20.5016 25.4965C21.5796 25.4965 22.3789 25.3102 23.3787 24.8259C24.3596 24.3509 25.2848 23.6575 26.1556 22.7449L26.8775 21.9884L27.7013 22.3614C28.1544 22.5665 28.5251 22.7602 28.5251 22.792C28.5251 22.8238 27.4269 24.2613 26.0847 25.9865C24.7426 27.7118 23.3314 29.5269 22.9488 30.0201L22.2532 30.9168H20.5033H18.7534L15.6556 26.9362C13.9518 24.7469 12.5384 22.9056 12.5146 22.8445C12.4841 22.7665 12.7077 22.6243 13.2648 22.3673C13.7013 22.1659 14.0738 21.9985 14.0925 21.9952C14.1112 21.9919 14.4505 22.3289 14.8465 22.7438ZM14.099 27.1428C15.6814 29.1831 17.0034 30.8994 17.0366 30.9567C17.0747 31.0224 16.9954 31.1609 16.8221 31.3314C16.6708 31.4801 16.507 31.7436 16.4582 31.9169C16.4017 32.1168 16.369 33.2154 16.3688 34.9222L16.3683 37.6124H9.07058H1.77279L1.5739 37.4168L1.37494 37.2211L1.37632 34.1686C1.37786 30.8947 1.41238 30.525 1.80691 29.5645C2.24431 28.4995 3.01173 27.5314 3.92916 26.8875C4.43107 26.5353 10.8627 23.4388 11.1004 23.4351C11.1672 23.434 12.5166 25.1024 14.099 27.1428ZM33.264 24.9769C35.079 25.8309 36.7938 26.6908 37.0743 26.8878C37.9914 27.5314 38.7589 28.4997 39.1963 29.5645C39.5908 30.525 39.6253 30.8947 39.6269 34.1686L39.6282 37.2211L39.4293 37.4168L39.2304 37.6124H31.9326H24.6349L24.6344 34.9222C24.6342 33.2154 24.6015 32.1168 24.545 31.9169C24.4961 31.7436 24.3323 31.4801 24.1811 31.3314C24.0087 31.1618 23.9287 31.0224 23.9666 30.9578C24.1759 30.6007 29.7986 23.433 29.8726 23.429C29.9228 23.4263 31.4489 24.1228 33.264 24.9769ZM18.658 32.9978C19.2036 33.713 19.2051 33.7165 19.1579 34.1294C19.0936 34.6916 19.3503 35.1762 19.85 35.4361C20.2978 35.669 20.7054 35.669 21.1532 35.4361C21.8768 35.0598 22.0842 34.1303 21.5876 33.4898C21.3556 33.1906 20.8341 32.9142 20.4966 32.9113C20.3085 32.9097 20.1335 32.7502 19.904 32.3715C19.8565 32.2931 20.207 32.2719 21.5512 32.2719H23.2587L23.2377 35.9585L23.2166 39.6451L20.4813 39.666L17.746 39.6871V35.9794V32.2719L17.9284 32.2762C18.0612 32.2793 18.2596 32.4755 18.658 32.9978ZM2.96626 33.7922C2.75635 33.9546 2.75271 33.9738 2.75271 34.934C2.75271 35.8519 2.76397 35.9212 2.94024 36.0841C3.18151 36.307 3.63229 36.3145 3.86683 36.0996C4.08055 35.9038 4.16354 35.4015 4.11224 34.6145C4.08095 34.1356 4.03719 33.9831 3.88523 33.824C3.64987 33.5776 3.26094 33.5641 2.96626 33.7922ZM6.35556 33.8226C6.16754 34.0075 6.1566 34.0684 6.1566 34.9278C6.1566 35.7272 6.17694 35.8627 6.32461 36.0473C6.65187 36.4566 7.3649 36.2729 7.49976 35.7446C7.52748 35.6357 7.53753 35.2072 7.52205 34.7923C7.49709 34.1246 7.47131 34.0145 7.29739 33.8325C7.03537 33.5585 6.62844 33.5542 6.35556 33.8226ZM9.75946 33.8226C9.57208 34.0068 9.56049 34.0699 9.56049 34.9039C9.56049 35.391 9.5998 35.8619 9.64794 35.9503C9.86344 36.3463 10.5483 36.371 10.818 35.9923C10.9851 35.7575 10.9864 34.2685 10.8197 33.9515C10.6161 33.5644 10.0874 33.5 9.75946 33.8226ZM13.2815 33.7291C13.0334 33.9165 12.9644 34.1781 12.9644 34.9317C12.9644 35.8319 13.0412 36.0704 13.3759 36.2088C13.7043 36.3447 13.9839 36.2853 14.1819 36.0377C14.3203 35.8646 14.3422 35.7132 14.3422 34.9278C14.3422 34.0684 14.3312 34.0075 14.1432 33.8226C13.9246 33.6076 13.5031 33.5618 13.2815 33.7291ZM26.86 33.8226C26.672 34.0075 26.661 34.0684 26.661 34.9278C26.661 35.7132 26.6829 35.8646 26.8212 36.0377C26.9094 36.1479 27.0705 36.2548 27.1791 36.2752C27.4679 36.3295 27.8658 36.1365 27.9584 35.8971C28.07 35.6083 28.0598 34.2132 27.9445 34.0003C27.7165 33.5793 27.1944 33.4937 26.86 33.8226ZM30.4076 33.6803C30.1702 33.7743 30.0649 34.1745 30.0649 34.9833C30.0649 35.4268 30.1042 35.8619 30.1524 35.9503C30.2834 36.1911 30.6928 36.3358 30.9722 36.24C31.3761 36.1015 31.4427 35.9149 31.4427 34.9208C31.4427 34.0688 31.4315 34.0073 31.2437 33.8226C31.0529 33.6349 30.6818 33.5718 30.4076 33.6803ZM33.6786 33.8722C33.4836 34.1002 33.4688 34.1734 33.4688 34.9124C33.4688 36.0143 33.6081 36.2574 34.2395 36.2574C34.4358 36.2574 34.5569 36.1995 34.6786 36.0473C34.8262 35.8627 34.8466 35.7272 34.8466 34.9278C34.8466 34.0684 34.8356 34.0075 34.6476 33.8226C34.3547 33.5346 33.9498 33.5553 33.6786 33.8722ZM37.1345 33.8067C36.9832 33.9652 36.9601 34.0968 36.9397 34.918C36.9178 35.8074 36.9255 35.8588 37.1115 36.0535C37.3706 36.3249 37.8248 36.3341 38.0743 36.0729C38.2351 35.9044 38.2505 35.8045 38.2505 34.9229C38.2505 33.9747 38.2467 33.9544 38.0369 33.7922C37.7515 33.5714 37.3531 33.5778 37.1345 33.8067Z" fill="#393587"/>
</svg>
