<svg width="54" height="44" viewBox="0 0 54 44" fill="none" xmlns="http://www.w3.org/2000/svg">
<path fill-rule="evenodd" clip-rule="evenodd" d="M10.2317 0.0874316C10.1402 0.132007 10.0166 0.247071 9.95694 0.343067C9.87207 0.479482 9.47394 3.15995 9.46648 3.6449C9.46445 3.7774 8.75208 4.08967 8.62591 4.0134C8.57415 3.98211 8.03322 3.56349 7.42389 3.08302C6.12791 2.06129 6.08036 2.03253 5.68564 2.03253C5.40353 2.03253 5.28548 2.13097 3.80459 3.60122C2.93555 4.46404 2.17742 5.27992 2.11981 5.41438C2.06221 5.54884 2.03373 5.75664 2.05645 5.87611C2.0885 6.0443 3.0489 7.36429 4.04411 8.60808C4.09546 8.67221 4.06764 8.82794 3.96192 9.06801C3.7796 9.48198 3.89936 9.44449 2.08152 9.65645C0.710813 9.81633 0.456615 9.88291 0.210126 10.1465L0.0125606 10.3577L0.00120168 12.531C-0.00626279 13.9703 0.0210799 14.798 0.0823372 14.9819C0.219456 15.3935 0.486311 15.5408 1.27016 15.6376C2.1715 15.749 3.18926 15.8833 3.52841 15.9356C3.7551 15.9706 3.82463 16.0359 3.95843 16.3396L4.11802 16.702L3.13393 17.9669C2.10488 19.2898 1.95259 19.5788 2.09117 19.9456C2.1818 20.1853 4.6897 22.7712 5.19712 23.148C5.56037 23.4178 5.92312 23.4514 6.22162 23.2429C6.33197 23.1659 6.92474 22.7075 7.53894 22.2242C8.15305 21.7411 8.69309 21.3458 8.73893 21.3458C8.90323 21.3458 9.46493 21.6771 9.46696 21.7752C9.46818 21.8304 9.55702 22.572 9.66445 23.4235C9.85649 24.946 9.8638 24.975 10.1098 25.1959L10.3599 25.4203L12.6913 25.4185C14.7777 25.4169 15.0408 25.4019 15.1957 25.2759C15.4849 25.0406 15.5388 24.8424 15.7135 23.3725C15.806 22.594 15.9019 21.8761 15.9266 21.7773C15.9563 21.6584 16.0924 21.5513 16.3295 21.4603L16.6875 21.323L17.1533 21.6892C19.3183 23.3913 19.3061 23.383 19.6432 23.383C19.9568 23.383 20.0215 23.3288 21.6076 21.7328C23.2469 20.0835 23.4166 19.8556 23.3069 19.4511C23.2795 19.3502 22.8155 18.7016 22.2757 18.0096L21.2942 16.7513L21.3833 16.4612C21.4323 16.3017 21.5009 16.1272 21.5357 16.0734C21.5972 15.9786 22.5064 15.8232 24.0556 15.6431C24.899 15.545 25.1518 15.4232 25.2802 15.0535C25.3338 14.8991 25.3673 13.9821 25.3673 12.6753C25.3672 10.8135 25.3495 10.5128 25.2253 10.2631C25.0408 9.8922 24.8113 9.82489 23.0206 9.61676C22.1231 9.51246 21.5823 9.41442 21.5396 9.34842C21.5026 9.29121 21.4314 9.11079 21.3812 8.9474L21.2901 8.65045L22.132 7.56842C22.595 6.97338 23.0559 6.35527 23.1561 6.1949C23.5215 5.6098 23.5093 5.58967 21.6534 3.72557C19.5101 1.573 19.8083 1.62744 17.9864 3.05694L16.6807 4.08128L16.3168 3.94169C16.0789 3.85042 15.9395 3.74277 15.9138 3.63039C15.8922 3.53595 15.8006 2.82233 15.7101 2.04459C15.5442 0.617854 15.4341 0.232485 15.1488 0.0792012C14.9434 -0.0312184 10.4595 -0.0237215 10.2317 0.0874316ZM14.042 1.84917C14.0677 1.97247 14.158 2.64607 14.2428 3.34624C14.3277 4.04632 14.4387 4.6971 14.4895 4.79237C14.5892 4.97947 14.9916 5.2087 15.5095 5.37323C15.688 5.42995 15.8705 5.50247 15.9151 5.53434C16.152 5.70359 16.7324 5.86527 16.9393 5.81963C17.066 5.79168 17.7061 5.34756 18.3617 4.83279L19.5537 3.8967L20.4727 4.81722C20.9782 5.32344 21.3918 5.76862 21.3918 5.80651C21.3918 5.84433 21.013 6.3613 20.5501 6.95529C20.0871 7.54927 19.6672 8.11245 19.617 8.20665C19.4708 8.48103 19.5093 8.78678 19.762 9.36015C19.892 9.65506 20.0655 10.0747 20.1474 10.2925C20.2294 10.5104 20.3852 10.7487 20.4938 10.8222C20.6211 10.9083 21.226 11.0281 22.1976 11.1595L23.7041 11.3632L23.7265 12.6892C23.7436 13.7071 23.7248 14.0234 23.6453 14.0503C23.5884 14.0696 22.905 14.1586 22.1266 14.248C21.0487 14.372 20.6627 14.4473 20.5068 14.5641C20.3808 14.6586 20.1812 15.0125 19.9874 15.4851C19.5735 16.4943 19.4897 16.7922 19.5523 17.0317C19.5808 17.141 20.005 17.7439 20.495 18.3714C20.9849 18.9988 21.3872 19.5495 21.3888 19.595C21.3904 19.6406 20.9811 20.0892 20.479 20.5919L19.5662 21.5059L18.5115 20.6815C16.8969 19.4194 16.8897 19.4165 16.2149 19.73C16.0054 19.8273 15.5823 20.0015 15.2746 20.1171C14.4759 20.4171 14.4337 20.4962 14.2458 22.0449C14.1594 22.7584 14.0677 23.4432 14.042 23.5664L13.9955 23.7905H12.6736H11.3517L11.3056 23.4849C11.2802 23.3169 11.1967 22.6344 11.1202 21.9684C10.9554 20.5354 10.8871 20.4124 10.0964 20.1249C9.81601 20.0229 9.41431 19.8525 9.20384 19.7463C8.59175 19.4371 8.43865 19.4754 7.54202 20.1615C7.1047 20.4962 6.54332 20.9342 6.29456 21.1346L5.84231 21.4992L4.88994 20.5402L3.93757 19.5811L4.86617 18.3883C5.37684 17.7322 5.81757 17.104 5.84556 16.9921C5.89878 16.7791 5.84296 16.5977 5.38674 15.5017C5.0897 14.788 4.98317 14.6211 4.74228 14.4916C4.65879 14.4467 3.99859 14.3387 3.27518 14.2517C2.5517 14.1647 1.87762 14.0743 1.77726 14.051C1.59738 14.0091 1.5947 13.9897 1.5947 12.711C1.5947 11.9974 1.62205 11.3973 1.65556 11.3774C1.68898 11.3574 2.37361 11.2608 3.17685 11.1627C4.22528 11.0347 4.69424 10.9436 4.83907 10.8398C4.95891 10.754 5.16759 10.4004 5.35266 9.96986C5.81951 8.88343 5.89846 8.63513 5.84491 8.42089C5.81805 8.31349 5.38284 7.68666 4.87769 7.02789C4.20167 6.14625 3.97709 5.79674 4.02699 5.70375C4.06431 5.63424 4.48175 5.1986 4.95469 4.73565L5.81456 3.89393L6.52409 4.44668C6.91436 4.75064 7.45212 5.17521 7.71914 5.3901C8.37934 5.9215 8.57033 5.94521 9.35646 5.59391C9.70615 5.43753 10.1333 5.2602 10.3058 5.19966C10.874 5.00033 10.9638 4.8072 11.1202 3.4472C11.1967 2.78118 11.2802 2.09878 11.3056 1.93066L11.3517 1.62508H12.6736H13.9955L14.042 1.84917ZM11.2498 7.77312C10.3738 8.04392 9.74761 8.42358 9.09755 9.07795C8.05934 10.123 7.59873 11.2386 7.59873 12.7078C7.59873 14.1664 8.06307 15.2902 9.09309 16.3247C9.69106 16.9253 10.3909 17.3548 11.2498 17.648C11.9441 17.885 13.4587 17.8637 14.2113 17.6062C15.8748 17.037 17.0162 15.884 17.5885 14.1947C17.8561 13.4048 17.8552 12.0083 17.5866 11.215C16.9873 9.44515 15.7827 8.26679 14.0402 7.74615C13.2321 7.50469 12.0821 7.51578 11.2498 7.77312ZM14.1488 9.52378C16.2858 10.5181 16.8489 13.2972 15.269 15.0527C13.4153 17.1126 10.033 16.2806 9.30542 13.5857C9.24197 13.3507 9.21471 12.9212 9.23548 12.4842C9.2793 11.5646 9.58339 10.8667 10.2181 10.2293C10.9735 9.47057 11.6667 9.20165 12.7914 9.23082C13.4715 9.24851 13.6312 9.28298 14.1488 9.52378ZM34.414 10.6454C34.1516 10.7123 33.8901 11.005 33.8139 11.3171C33.7748 11.4769 33.6384 12.5032 33.5106 13.5979L33.2781 15.5882L32.7913 15.8082C32.5236 15.9293 32.2291 16.0516 32.1371 16.08C32.006 16.1205 31.6267 15.8633 30.3926 14.8973C29.5253 14.2183 28.7062 13.5947 28.5723 13.5115C28.2593 13.3171 27.9264 13.319 27.6082 13.5175C27.3378 13.6861 23.7912 17.2573 23.5588 17.595C23.2512 18.042 23.3282 18.2013 24.7233 20.0051C25.44 20.9317 26.0652 21.7522 26.1125 21.8283C26.2324 22.0212 25.8005 23.1341 25.5713 23.2231C25.4815 23.2579 24.4587 23.3986 23.2985 23.5356L21.1889 23.7848L20.9658 24.0334L20.7427 24.282V27.3256C20.7427 30.2519 20.749 30.3773 20.9059 30.5777C21.1097 30.8379 21.1553 30.8476 23.623 31.1562L25.6514 31.4098L25.8271 31.7765C25.9238 31.9782 26.0469 32.2767 26.1008 32.4398L26.1988 32.7363L24.9018 34.4004C24.1884 35.3156 23.5632 36.1424 23.5124 36.2376C23.4617 36.3328 23.4202 36.5322 23.4202 36.6806C23.4202 36.9251 23.6242 37.155 25.595 39.1307C27.6158 41.1564 27.7901 41.3109 28.0554 41.3109C28.3847 41.3109 28.4524 41.2651 30.5096 39.6496L31.9508 38.5178L32.2493 38.6125C32.4136 38.6647 32.7121 38.7889 32.9129 38.8886L33.2777 39.0699L33.4949 40.8627C33.6142 41.8488 33.7364 42.8543 33.7663 43.0972C33.8071 43.4287 33.8779 43.5964 34.0502 43.7695L34.2798 44.0001H37.3107C40.5462 44.0001 40.5674 43.9977 40.7822 43.5945C40.8269 43.5105 40.9352 42.8615 41.0229 42.1522C41.1106 41.443 41.2228 40.5327 41.2723 40.1293C41.4104 39.0055 41.3822 39.0642 41.8989 38.8259C42.7132 38.4502 42.6274 38.421 44.0692 39.5636C46.2187 41.267 46.2826 41.3109 46.611 41.3109C46.8882 41.3109 47.0334 41.1826 49.0776 39.1294C51.0407 37.1577 51.2497 36.922 51.2497 36.6793C51.2497 36.5316 51.2093 36.3351 51.16 36.2426C51.1108 36.1501 50.4859 35.322 49.7717 34.4024L48.473 32.7305L48.5715 32.4369C48.6257 32.2754 48.7488 31.9782 48.8451 31.7765L49.0202 31.4098L51.21 31.1397C52.8602 30.9361 53.4497 30.8339 53.6026 30.7245C53.9903 30.4472 54.0196 30.1756 53.9926 27.1127L53.9677 24.2824L53.7214 24.035C53.476 23.7888 53.4659 23.7866 51.2592 23.5124C50.0405 23.3609 49.0154 23.2057 48.9811 23.1674C48.9469 23.1291 48.8173 22.8331 48.6931 22.5094C48.5345 22.0961 48.4916 21.89 48.5492 21.8167C48.9946 21.2504 50.4968 19.3118 50.8281 18.8758C51.2876 18.2709 51.3577 17.9604 51.1169 17.595C50.8993 17.2647 47.2519 13.6032 47.0144 13.4765C46.7494 13.3353 46.433 13.3266 46.1936 13.4542C46.0962 13.5061 45.3045 14.1044 44.4343 14.7838C43.5641 15.4633 42.8103 16.044 42.7593 16.0742C42.7083 16.1045 42.5257 16.0716 42.3536 16.0012C41.4654 15.6377 41.4349 15.6173 41.3927 15.3613C41.3321 14.9931 41.1269 13.3568 41.0245 12.4226C40.9067 11.3488 40.827 11.0662 40.5748 10.8282L40.3646 10.6298L37.4705 10.617C35.8787 10.6099 34.5033 10.6227 34.414 10.6454ZM39.4975 13.3597C39.5737 13.9648 39.6922 14.917 39.7607 15.4758C39.8483 16.1902 39.9304 16.5523 40.0369 16.6956C40.1339 16.8261 40.4633 17.0061 40.9523 17.1959C41.3725 17.3589 41.9334 17.592 42.1987 17.7138C42.5373 17.8692 42.7551 17.9211 42.929 17.888C43.0798 17.8591 43.8269 17.3309 44.8393 16.5374L46.5019 15.2343L47.9022 16.639C48.6723 17.4116 49.3014 18.0807 49.3003 18.126C49.2991 18.1713 48.7826 18.8685 48.1524 19.6752C47.5222 20.482 46.9391 21.2521 46.8567 21.3865C46.6482 21.7263 46.6683 22.0083 46.9393 22.5501C47.0676 22.8065 47.2687 23.2851 47.3862 23.6135C47.6572 24.3716 47.7257 24.4972 47.9462 24.6411C48.0551 24.7121 48.925 24.8576 50.1543 25.0105C51.2699 25.1492 52.2284 25.2786 52.2841 25.2981C52.3615 25.3253 52.3856 25.7977 52.3856 27.2872C52.3856 28.7608 52.3607 29.2568 52.2841 29.3061C52.2284 29.342 51.2523 29.4879 50.1151 29.6303C48.0624 29.8873 48.0459 29.8909 47.8327 30.1305C47.7146 30.2634 47.5529 30.5689 47.4733 30.8094C47.3938 31.05 47.1886 31.5486 47.0174 31.9174C46.8462 32.2862 46.7061 32.6932 46.7061 32.8219C46.7061 33.0873 46.7659 33.1753 48.2342 35.0698C48.8217 35.8279 49.3024 36.4884 49.3024 36.5375C49.3024 36.698 46.566 39.3813 46.4501 39.3345C46.39 39.3103 45.6146 38.7183 44.7267 38.019C43.3432 36.9293 43.0718 36.7475 42.8285 36.7475C42.6655 36.7475 42.213 36.8999 41.7654 37.1055C41.3367 37.3024 40.8287 37.5105 40.6364 37.5681C40.4441 37.6255 40.1998 37.7763 40.0936 37.9031C39.8793 38.1589 39.8862 38.1227 39.5811 40.5775L39.3633 42.3296H37.3349H35.3065L35.2142 41.5961C35.1635 41.1928 35.0601 40.331 34.9846 39.6811C34.7723 37.8549 34.748 37.8021 34.0084 37.5642C33.8299 37.5067 33.3331 37.2995 32.9044 37.1036C32.4758 36.9078 32.0194 36.7476 31.8902 36.7478C31.5798 36.7482 31.4222 36.8533 29.7082 38.2039C28.9049 38.8368 28.2108 39.3548 28.1657 39.3549C28.1206 39.355 27.4554 38.7226 26.6874 37.9495L25.2911 36.5437L26.4728 35.0362C27.8496 33.2797 27.963 33.1115 27.9634 32.8258C27.9636 32.7082 27.8235 32.2865 27.6521 31.8887C27.4807 31.4908 27.2429 30.9264 27.1236 30.6342C27.0043 30.3421 26.8275 30.0534 26.7308 29.9927C26.5681 29.8907 25.3499 29.7069 23.2579 29.4688L22.406 29.3718L22.3843 27.3145C22.3665 25.6264 22.3824 25.2573 22.4727 25.2573C22.5332 25.2573 23.474 25.145 24.5633 25.0077C25.8223 24.849 26.6131 24.713 26.7339 24.6342C26.9047 24.5228 27.3147 23.7495 27.3147 23.5387C27.3147 23.4925 27.4607 23.143 27.6392 22.7621C27.8177 22.3812 27.9638 21.9582 27.9638 21.8221C27.9638 21.5315 27.9379 21.493 26.4848 19.6212C25.8702 18.8296 25.3674 18.1508 25.3674 18.1128C25.3674 18.0747 25.9983 17.4108 26.7692 16.6374L28.1711 15.2312L29.8321 16.5354C30.9008 17.3745 31.5865 17.8577 31.755 17.8901C31.9555 17.9288 32.1646 17.8721 32.6475 17.6477C32.9943 17.4866 33.5483 17.2531 33.8786 17.1287C34.2463 16.9903 34.5386 16.8226 34.6325 16.6962C34.7522 16.5351 34.8389 16.0606 35.0269 14.5376C35.1595 13.464 35.2867 12.5024 35.3094 12.4008L35.3509 12.216L37.355 12.2378L39.359 12.2596L39.4975 13.3597ZM36.0257 20.8619C33.6824 21.3564 31.9172 22.9396 31.0799 25.2981C30.8626 25.9101 30.8483 26.0297 30.8463 27.2538C30.8443 28.3969 30.8675 28.6331 31.0342 29.1689C31.7291 31.4031 33.4408 33.0854 35.6443 33.6997C36.3621 33.8999 37.8573 33.942 38.6203 33.7835C41.4709 33.1914 43.5716 30.8744 43.8645 27.9991C44.2105 24.6051 41.961 21.5463 38.6156 20.8616C37.6166 20.6571 36.9956 20.6572 36.0257 20.8619ZM38.7439 22.5768C40.3991 23.073 41.7064 24.452 42.1297 26.1482C42.4013 27.2361 42.1931 28.7687 41.6413 29.7444C39.6955 33.185 34.6903 33.0649 32.934 29.5356C31.0179 25.6846 34.6399 21.3463 38.7439 22.5768Z" fill="#393587"/>
</svg>
