<svg width="38" height="46" viewBox="0 0 38 46" fill="none" xmlns="http://www.w3.org/2000/svg">
<path fill-rule="evenodd" clip-rule="evenodd" d="M3.69811 0.605922C2.58639 1.80212 1.30619 3.97375 0.715349 5.6658C0.16603 7.23895 0.00229676 8.22511 2.13601e-05 9.97216C-0.00215923 11.6786 0.162238 12.7044 0.667756 14.1382C1.06709 15.2709 2.07954 17.1535 2.85906 18.2125C3.88583 19.6077 4.20931 19.9373 4.55205 19.9373C4.87506 19.9373 5.21808 19.6521 5.30208 19.3137C5.37034 19.039 5.28871 18.8981 4.29701 17.5788C1.66969 14.0832 0.857466 10.4588 1.88869 6.83114C2.36653 5.1501 3.48384 3.13802 4.70393 1.76139C4.99309 1.43504 5.25865 1.0762 5.29392 0.963803C5.38342 0.678648 5.18347 0.244303 4.90331 0.115331C4.45932 -0.0891449 4.27407 -0.0137355 3.69811 0.605922ZM14.3476 0.132292C13.8823 0.280522 13.0887 1.11108 12.946 1.59917C12.8598 1.8941 12.8307 3.89 12.8307 9.51655V17.0394L12.5431 17.1599C12.1524 17.3234 11.5614 18.0222 11.4253 18.4815C11.3639 18.6884 11.3138 19.1005 11.3138 19.3974V19.9373H10.7796C10.4858 19.9373 10.0699 19.9897 9.85524 20.0538C9.33446 20.2093 8.54907 21.0031 8.39519 21.5294C8.31423 21.8064 8.27991 22.93 8.27991 25.3031C8.27991 27.6762 8.31423 28.7998 8.39519 29.0768C8.54907 29.6031 9.33446 30.3969 9.85524 30.5524C10.0699 30.6165 10.4858 30.6689 10.7796 30.6689H11.3138V31.8187V32.9686H10.0296C8.79244 32.9686 8.73679 32.9772 8.51266 33.2038L8.27991 33.4389V36.0348V38.6306L8.51266 38.8657C8.73679 39.0923 8.79244 39.1009 10.0296 39.1009H11.3138V41.5571C11.3138 43.2055 11.3517 44.1431 11.4291 44.4077C11.5829 44.9341 12.3683 45.7278 12.8891 45.8833C13.1804 45.9703 15.0936 45.9999 20.4332 45.9999C28.5769 45.9999 28.1678 46.0369 28.8816 45.2345C29.1071 44.981 29.3422 44.6026 29.4042 44.3936C29.5665 43.846 29.5665 19.025 29.4042 18.4774C29.2391 17.9202 28.5657 17.2082 28.0294 17.0234C27.7861 16.9396 27.5093 16.8711 27.4143 16.8711C27.2676 16.8711 27.2415 16.7896 27.2415 16.3312C27.2415 15.5597 27.0745 15.0966 26.6062 14.5703C25.839 13.7078 24.6357 13.5578 23.7099 14.2093C23.4531 14.3902 23.4453 14.3902 23.1885 14.2093C22.2986 13.5831 21.1149 13.7051 20.341 14.5029C19.8699 14.9884 19.6569 15.5507 19.6569 16.3082V16.8711H18.5192H17.3815V9.43232C17.3815 3.96263 17.3516 1.89295 17.2688 1.61336C17.1036 1.05617 16.4303 0.344146 15.894 0.159408C15.3929 -0.013161 14.8349 -0.0229342 14.3476 0.132292ZM32.8784 0.242291C32.5087 0.615791 32.5675 0.971756 33.0965 1.56305C34.7527 3.41455 35.7936 5.39751 36.3117 7.68805C36.5656 8.81113 36.5365 11.1101 36.2536 12.2718C35.745 14.3612 34.8073 16.1964 33.2571 18.137C32.9079 18.5742 32.6456 18.9955 32.6456 19.1195C32.6456 19.4104 32.9656 19.8056 33.262 19.8808C33.6095 19.969 33.8982 19.7763 34.4381 19.096C38.039 14.5575 38.9086 9.92128 37.0516 5.16199C36.4152 3.53068 35.1899 1.56094 34.1188 0.447151C33.6168 -0.0747716 33.2517 -0.135137 32.8784 0.242291ZM15.6318 1.77538C15.8465 1.99222 15.8646 2.08181 15.8646 2.9252V3.83979H15.1061H14.3476V2.9252C14.3476 2.08181 14.3657 1.99222 14.5804 1.77538C14.7271 1.62706 14.9214 1.54015 15.1061 1.54015C15.2908 1.54015 15.4851 1.62706 15.6318 1.77538ZM7.33182 3.90706C6.85437 4.08202 5.77526 5.49821 5.25553 6.63203C3.93873 9.50486 4.36044 12.3409 6.52994 15.2036C7.12941 15.9946 7.46124 16.1901 7.86901 15.9925C8.22027 15.8224 8.40581 15.4331 8.28654 15.1162C8.23705 14.9844 7.95832 14.5652 7.66726 14.1844C6.64797 12.8511 6.00783 11.1892 6.00783 9.87634C6.00783 8.51774 6.70002 6.76024 7.65465 5.69512C7.94448 5.37164 8.22406 4.9944 8.27583 4.85671C8.49209 4.2818 7.9093 3.69549 7.33182 3.90706ZM29.8778 4.13108C29.488 4.52499 29.561 4.84483 30.2045 5.56347C30.8631 6.29906 31.3609 7.16258 31.6686 8.10371C32.0296 9.20725 32.026 10.5631 31.6593 11.649C31.3346 12.6108 30.9221 13.3624 30.1872 14.331C29.5379 15.187 29.4701 15.491 29.8445 15.8693C30.0694 16.0967 30.3894 16.1646 30.6886 16.0486C30.8707 15.978 31.838 14.7082 32.2918 13.9442C32.99 12.7687 33.4989 11.0326 33.4989 9.82642C33.4989 9.22574 33.2349 7.92385 32.9669 7.20205C32.37 5.59518 30.9883 3.83979 30.3203 3.83979C30.2354 3.83979 30.0363 3.97087 29.8778 4.13108ZM15.8646 8.0558V10.7387H15.1061H14.3476V8.0558V5.37288H15.1061H15.8646V8.0558ZM15.8646 13.0384V13.8049H15.1061H14.3476V13.0384V12.2718H15.1061H15.8646V13.0384ZM15.8646 16.1045V16.8711H15.1061H14.3476V16.1045V15.338H15.1061H15.8646V16.1045ZM22.458 15.5732C22.6491 15.7663 22.6908 15.9033 22.6908 16.3398V16.8711H21.9323H21.1738V16.3398C21.1738 15.7004 21.4482 15.338 21.9323 15.338C22.117 15.338 22.3113 15.4249 22.458 15.5732ZM25.4919 15.5732C25.683 15.7663 25.7246 15.9033 25.7246 16.3398V16.8711H24.9662H24.2077V16.3398C24.2077 15.7004 24.4821 15.338 24.9662 15.338C25.1508 15.338 25.3452 15.4249 25.4919 15.5732ZM27.7673 18.6394L28 18.8745V30.1376V41.4006H20.4154H12.8307V30.1376V18.8745L13.0635 18.6394L13.2961 18.4042H20.4154H27.5346L27.7673 18.6394ZM14.5804 20.939C14.4336 21.0873 14.3476 21.2837 14.3476 21.4704C14.3476 21.657 14.4336 21.8534 14.5804 22.0017L14.813 22.2369H20.4154H26.0177L26.2503 22.0017C26.3971 21.8534 26.4831 21.657 26.4831 21.4704C26.4831 21.2837 26.3971 21.0873 26.2503 20.939L26.0177 20.7038H20.4154H14.813L14.5804 20.939ZM11.3138 25.3031V29.1358H10.7881C10.3562 29.1358 10.2206 29.0938 10.0296 28.9006L9.79684 28.6655V25.3031V21.9407L10.0296 21.7056C10.2206 21.5124 10.3562 21.4704 10.7881 21.4704H11.3138V25.3031ZM14.5804 24.0052C14.4336 24.1535 14.3476 24.3499 14.3476 24.5366C14.3476 24.7232 14.4336 24.9196 14.5804 25.0679L14.813 25.3031H20.4154H26.0177L26.2503 25.0679C26.3971 24.9196 26.4831 24.7232 26.4831 24.5366C26.4831 24.3499 26.3971 24.1535 26.2503 24.0052L26.0177 23.77H20.4154H14.813L14.5804 24.0052ZM14.5804 27.0714L14.3476 27.3066V30.2857V33.2647L14.5804 33.4999L14.813 33.7351H20.4154H26.0177L26.2503 33.4999L26.4831 33.2647V30.2857V27.3066L26.2503 27.0714L26.0177 26.8362H20.4154H14.813L14.5804 27.0714ZM24.9662 30.2857V32.202H20.4154H15.8646V30.2857V28.3693H20.4154H24.9662V30.2857ZM11.3138 36.0348V37.5678H10.5553H9.79684V36.0348V34.5017H10.5553H11.3138V36.0348ZM16.623 35.3934C16.1577 35.5417 15.3641 36.3722 15.2214 36.8603C14.9588 37.7587 15.1439 38.475 15.8139 39.1521C16.7843 40.1328 18.1233 40.1119 19.0216 39.1021C19.8717 38.1465 19.8717 36.9892 19.0216 36.0336C18.408 35.3439 17.5215 35.1072 16.623 35.3934ZM22.6908 35.3934C22.2254 35.5417 21.4318 36.3722 21.2891 36.8603C21.0265 37.7587 21.2117 38.475 21.8817 39.1521C22.852 40.1328 24.191 40.1119 25.0893 39.1021C25.9395 38.1465 25.9395 36.9892 25.0893 36.0336C24.4757 35.3439 23.5893 35.1072 22.6908 35.3934ZM17.9072 37.0365C18.054 37.1848 18.14 37.3812 18.14 37.5678C18.14 37.7545 18.054 37.9509 17.9072 38.0992C17.7605 38.2475 17.5662 38.3344 17.3815 38.3344C17.1968 38.3344 17.0025 38.2475 16.8558 38.0992C16.709 37.9509 16.623 37.7545 16.623 37.5678C16.623 37.3812 16.709 37.1848 16.8558 37.0365C17.0025 36.8882 17.1968 36.8013 17.3815 36.8013C17.5662 36.8013 17.7605 36.8882 17.9072 37.0365ZM23.9749 37.0365C24.1217 37.1848 24.2077 37.3812 24.2077 37.5678C24.2077 37.7545 24.1217 37.9509 23.9749 38.0992C23.8283 38.2475 23.6339 38.3344 23.4492 38.3344C23.2645 38.3344 23.0702 38.2475 22.9235 38.0992C22.7767 37.9509 22.6908 37.7545 22.6908 37.5678C22.6908 37.3812 22.7767 37.1848 22.9235 37.0365C23.0702 36.8882 23.2645 36.8013 23.4492 36.8013C23.6339 36.8013 23.8283 36.8882 23.9749 37.0365ZM28 43.465C28 43.9014 27.9584 44.0385 27.7673 44.2315L27.5346 44.4668H20.4154H13.2961L13.0635 44.2315C12.8723 44.0385 12.8307 43.9014 12.8307 43.465V42.9337H20.4154H28V43.465Z" fill="#393587"/>
</svg>
