<svg width="13" height="14" viewBox="0 0 13 14" fill="none" xmlns="http://www.w3.org/2000/svg">
<path fill-rule="evenodd" clip-rule="evenodd" d="M2.48118 0.00998413C2.39082 0.0314958 1.28679 0.668813 1.29425 0.69517C1.29938 0.713266 3.54427 4.39515 3.55871 4.40913C3.56144 4.41177 3.68386 4.34376 3.83074 4.258C3.97764 4.17224 4.22489 4.02941 4.3802 3.9406C4.5355 3.8518 4.68534 3.76006 4.71317 3.73675C4.741 3.71342 4.78581 3.65162 4.81275 3.59939C4.85603 3.51551 4.86167 3.49107 4.86111 3.38979C4.86063 3.30227 4.85247 3.25825 4.82662 3.20373C4.77057 3.08551 3.00827 0.211565 2.95507 0.151618C2.85604 0.040029 2.63394 -0.0263499 2.48118 0.00998413ZM8.9797 0.878555C8.94971 0.970305 8.88217 1.17675 8.82961 1.33733C8.77707 1.49792 8.73568 1.63018 8.73764 1.63125C8.73962 1.63232 8.79516 1.64479 8.86107 1.65895C9.56233 1.80966 10.2752 2.1996 10.8024 2.72083C11.3715 3.28355 11.7245 3.95914 11.865 4.75451C11.9055 4.98414 11.9208 5.46278 11.8954 5.70563C11.8583 6.05942 11.7535 6.4653 11.6194 6.7744C11.5754 6.87592 11.5584 6.93088 11.5698 6.93451C11.6768 6.96854 12.6274 7.24158 12.6388 7.24158C12.6774 7.24158 12.841 6.72461 12.9114 6.38002C12.985 6.01971 13.0077 5.74567 12.9978 5.3334C12.9828 4.7022 12.8749 4.19733 12.6355 3.63804C12.0178 2.19484 10.7684 1.1518 9.17234 0.746798L9.03424 0.711765L8.9797 0.878555ZM0.841205 0.964259C0.483947 1.31605 0.205956 1.88637 0.0835799 2.51866C-0.0227692 3.06813 -0.027847 3.75254 0.0696047 4.40432C0.315511 6.04912 1.26299 8.14594 2.65954 10.136C3.22841 10.9466 3.75015 11.5641 4.35149 12.1382C5.01159 12.7684 5.61122 13.2019 6.2697 13.5248C7.11392 13.9389 7.97328 14.093 8.61309 13.945C8.72696 13.9186 8.91349 13.8505 8.91349 13.8352C8.91349 13.83 6.7138 10.1991 6.70474 10.1894C6.70279 10.1873 6.66142 10.2033 6.61279 10.2248C6.49567 10.2768 6.31275 10.2795 6.18991 10.2312C5.92612 10.1275 5.61579 9.82798 5.12125 9.19978C4.88903 8.90479 4.83044 8.81362 4.00057 7.45598C3.28392 6.28357 3.29757 6.30766 3.15611 5.96527C2.99916 5.58541 2.94404 5.34878 2.95475 5.10089C2.96059 4.96536 2.96724 4.93393 3.00734 4.85215C3.0512 4.76273 3.14302 4.65716 3.22013 4.60753L3.25614 4.58436L3.15273 4.41397C2.18525 2.81997 0.979114 0.853585 0.968524 0.85307C0.960975 0.852698 0.903681 0.90274 0.841205 0.964259ZM8.3363 2.82847C8.33079 2.84617 8.25909 3.06225 8.17696 3.30867C8.09483 3.55509 8.02979 3.75792 8.03243 3.75939C8.03508 3.76086 8.11475 3.77673 8.20949 3.79465C8.60114 3.86878 8.91116 4.03328 9.19237 4.31622C9.40577 4.53094 9.54733 4.77435 9.62757 5.0645C9.67993 5.25384 9.69321 5.5979 9.65561 5.79079C9.62554 5.94506 9.56032 6.13688 9.49771 6.25524C9.46464 6.31776 9.45725 6.34339 9.47108 6.34781C9.48158 6.35117 9.67891 6.40921 9.90958 6.47682C10.1403 6.54441 10.3579 6.60875 10.3932 6.61978L10.4573 6.63985L10.4937 6.56134C10.591 6.35149 10.6785 6.02337 10.7106 5.74791C10.7949 5.02632 10.5245 4.23034 10.0042 3.66847C9.62829 3.26258 9.10223 2.96344 8.53154 2.83109C8.34867 2.78868 8.34869 2.78868 8.3363 2.82847ZM8.17205 9.3617C8.13909 9.37205 7.86106 9.52359 7.55419 9.69847C7.08128 9.96797 6.9983 10.0201 7.00972 10.0405C7.05201 10.1159 9.2172 13.6542 9.22682 13.6636C9.2368 13.6734 10.1646 13.1542 10.3265 13.0482C10.3934 13.0044 10.4627 12.9136 10.4955 12.8269C10.5283 12.7404 10.5258 12.5821 10.4904 12.4944C10.4536 12.4034 8.73173 9.58468 8.66381 9.50423C8.56098 9.38242 8.32447 9.31387 8.17205 9.3617Z" fill="#B8B8B8"/>
</svg>
