<svg width="13" height="9" viewBox="0 0 13 9" fill="none" xmlns="http://www.w3.org/2000/svg">
<path fill-rule="evenodd" clip-rule="evenodd" d="M0.475194 0.017039C0.475194 0.0295764 5.47916 4.91148 5.77434 5.18692C5.9121 5.31547 6.07429 5.42822 6.19912 5.48222C6.31485 5.53229 6.36796 5.54274 6.50151 5.54169C6.6758 5.54034 6.8097 5.49234 7.01865 5.35628C7.13613 5.27979 12.5056 0.0642856 12.506 0.0262948C12.5062 0.00532208 11.2889 0 6.49071 0C3.18218 0 0.475194 0.00765701 0.475194 0.017039ZM10.9652 2.50138C9.64101 3.79102 8.9407 4.48746 8.94561 4.50982C8.94971 4.52867 9.86189 5.42932 10.9727 6.51132L12.9922 8.47857L12.9977 6.49011C13.0008 5.39648 13.0008 3.60742 12.9977 2.51442L12.9922 0.527159L10.9652 2.50138ZM0 4.51219C0 6.86516 0.00792702 8.45642 0.0196341 8.45642C0.0304339 8.45642 0.0931164 8.402 0.158931 8.33546C0.224745 8.26893 1.12954 7.38622 2.16958 6.37387C3.20963 5.36152 4.06062 4.52099 4.06066 4.50603C4.06077 4.47431 0.0545824 0.567969 0.0219453 0.567969C0.00717108 0.567969 0 1.85492 0 4.51219ZM2.53293 6.9743C1.11567 8.3568 0.522907 8.94828 0.531893 8.97106C0.543341 9.00011 1.15684 9.00289 6.50743 8.99814C10.4957 8.99458 12.4726 8.98581 12.4775 8.97161C12.4859 8.94715 8.46019 5.02013 8.41743 5.01104C8.40188 5.00774 8.34965 5.0456 8.30135 5.09518C8.14644 5.25428 7.72695 5.64468 7.5599 5.78526C7.4708 5.86026 7.392 5.92942 7.38479 5.93899C7.3776 5.94857 7.34716 5.97223 7.31718 5.99158C7.2872 6.01094 7.20784 6.06229 7.14086 6.10566C7.07388 6.14906 7.01183 6.18455 7.00297 6.18455C6.99412 6.18455 6.95299 6.2022 6.91158 6.2238C6.75362 6.30613 6.47935 6.33277 6.26026 6.28699C6.12993 6.25977 6.02135 6.2101 5.85674 6.1024C5.79319 6.06081 5.71729 6.01144 5.68811 5.99268C5.55726 5.90858 5.31888 5.69803 4.87529 5.27474C4.72072 5.12724 4.58354 5.00729 4.5705 5.00822C4.55743 5.00915 3.64052 5.89389 2.53293 6.9743Z" fill="#B8B8B8"/>
</svg>
