<svg width="13" height="16" viewBox="0 0 13 16" fill="none" xmlns="http://www.w3.org/2000/svg">
<path fill-rule="evenodd" clip-rule="evenodd" d="M6.03072 0.00493856C4.57185 0.113121 3.3183 0.604984 2.30241 1.4678C1.01828 2.55847 0.207681 4.19281 0.0352855 6.03884C-0.0391434 6.83581 0.00182761 7.41049 0.180582 8.07621C0.580001 9.56384 1.59117 11.2929 3.10696 13.08C4.22911 14.4031 5.50843 15.569 6.21249 15.9102C6.44828 16.0245 6.53404 16.0278 6.74856 15.9309C7.43485 15.6211 8.74802 14.4307 9.89365 13.08C11.4092 11.2931 12.4195 9.56545 12.8202 8.07564C12.9975 7.41633 13.039 6.83271 12.9652 6.03884C12.7877 4.12892 11.9204 2.43922 10.5602 1.35333C9.64156 0.619921 8.57915 0.189589 7.31229 0.0377505C7.09658 0.0118953 6.23452 -0.010184 6.03072 0.00493856ZM6.97967 3.52112C7.34424 3.5762 7.76127 3.73501 8.0925 3.94494C8.73847 4.35433 9.19698 5.058 9.30947 5.81256C9.3421 6.03147 9.32213 6.52198 9.27184 6.73637C9.02453 7.79112 8.19536 8.5752 7.07517 8.81364C6.90156 8.85059 6.81804 8.85687 6.50031 8.85687C6.08889 8.85687 5.89092 8.82696 5.55369 8.71383C4.97181 8.51865 4.44029 8.11474 4.0995 7.60879C3.94476 7.37903 3.80167 7.04656 3.72908 6.74809C3.67354 6.51964 3.65814 6.0006 3.69973 5.7596C3.87064 4.76985 4.58282 3.95675 5.56167 3.6338C6.02628 3.48051 6.47485 3.44485 6.97967 3.52112Z" fill="#B8B8B8"/>
</svg>
